<svg xmlns="http://www.w3.org/2000/svg"  viewBox="0 0 512 512" width="64px" height="64px"><polygon fill="#c6c5ca" points="208 16 208 160 176 160 176 192 144 160 16 160 16 16 208 16"/><polygon fill="#0b7" points="208 16 208 160 176 160 176 192 144 160 16 160 16 16 208 16"/><polygon fill="#0b7" points="304 48 304 192 336 192 336 224 368 192 496 192 496 48 304 48"/><path fill="#ffda44" d="M344,304a88.029,88.029,0,0,1-56,82v30H224V386a88.01,88.01,0,1,1,120-82Z"/><rect width="96" height="24" x="208" y="416" fill="#c6c5ca"/><path fill="#57565c" d="M216,440h80a0,0,0,0,1,0,0v16a40,40,0,0,1-40,40h0a40,40,0,0,1-40-40V440A0,0,0,0,1,216,440Z"/><line x1="176.804" x2="165.49" y1="383.196" y2="394.51" fill="#c6c5ca"/><line x1="176.804" x2="165.49" y1="224.804" y2="213.49" fill="#c6c5ca"/><line x1="346.51" x2="335.196" y1="394.51" y2="383.196" fill="#c6c5ca"/><g><path d="M170.343,197.657A8,8,0,0,0,184,192V168h24a8,8,0,0,0,8-8V16a8,8,0,0,0-8-8H16a8,8,0,0,0-8,8V160a8,8,0,0,0,8,8H140.686ZM24,24H200V152H176a8,8,0,0,0-8,8v12.687l-18.343-18.344A8,8,0,0,0,144,152H24Z"/><path d="M496,40H304a8,8,0,0,0-8,8V192a8,8,0,0,0,8,8h24v24a8,8,0,0,0,13.66,5.66L371.31,200H496a8,8,0,0,0,8-8V48A8,8,0,0,0,496,40Zm-8,144H368a8.008,8.008,0,0,0-5.66,2.34L344,204.69V192a8,8,0,0,0-8-8H312V56H488Z"/><path d="M256,208a96.013,96.013,0,0,0-40,183.29V408h-8a8,8,0,0,0-8,8v24a8,8,0,0,0,8,8v8a48,48,0,0,0,96,0v-8a8,8,0,0,0,8-8V416a8,8,0,0,0-8-8h-8V391.29A96.012,96.012,0,0,0,256,208Zm32,248a32,32,0,0,1-64,0v-8h64Zm8-24H216v-8h80Zm25.73-82.38a79.968,79.968,0,0,1-36.64,28.93A8,8,0,0,0,280,386v22H264V320a8,8,0,0,0-16,0v88H232V386a8,8,0,0,0-5.09-7.45,80.008,80.008,0,1,1,94.82-28.93Z"/><path d="M232,296a8,8,0,0,0-8,8v32a8,8,0,0,0,16,0V304A8,8,0,0,0,232,296Z"/><path d="M288,336V304a8,8,0,0,0-16,0v32a8,8,0,0,0,16,0Z"/><path d="M144,296H128a8,8,0,0,0,0,16h16a8,8,0,0,0,0-16Z"/><path d="M384,296H368a8,8,0,0,0,0,16h16a8,8,0,0,0,0-16Z"/><path d="M171.147,377.539l-11.314,11.314a8,8,0,0,0,11.314,11.314l11.314-11.313a8,8,0,0,0-11.314-11.315Z"/><path d="M171.147,207.833a8,8,0,0,0-11.314,11.314l11.314,11.314a8,8,0,0,0,11.314-11.315Z"/><path d="M340.853,377.539a8,8,0,0,0-11.314,11.315l11.314,11.313a8,8,0,0,0,11.314-11.314Z"/><path d="M256,200a8,8,0,0,0,8-8V176a8,8,0,0,0-16,0v16A8,8,0,0,0,256,200Z"/></g></svg>